<mxfile host="app.diagrams.net" modified="2023-11-07T04:18:36.551Z" agent="Mozilla/5.0 (Windows NT 10.0; Win64; x64; rv:109.0) Gecko/20100101 Firefox/119.0" etag="Xae8g0pAzpWGn32144u-" version="22.0.8" type="device">
  <diagram name="Page-1" id="lcMntc6Rq3GlfpX4Syec">
    <mxGraphModel dx="1457" dy="1424" grid="1" gridSize="10" guides="1" tooltips="1" connect="1" arrows="1" fold="1" page="1" pageScale="1" pageWidth="850" pageHeight="1100" math="0" shadow="0">
      <root>
        <mxCell id="0" />
        <mxCell id="1" parent="0" />
        <mxCell id="tZ4wHLgtjXOiwGDxSLUs-32" style="edgeStyle=orthogonalEdgeStyle;rounded=1;orthogonalLoop=1;jettySize=auto;html=1;" parent="1" source="tZ4wHLgtjXOiwGDxSLUs-2" target="tZ4wHLgtjXOiwGDxSLUs-33" edge="1">
          <mxGeometry relative="1" as="geometry">
            <mxPoint y="-110" as="targetPoint" />
          </mxGeometry>
        </mxCell>
        <mxCell id="tZ4wHLgtjXOiwGDxSLUs-51" style="edgeStyle=orthogonalEdgeStyle;rounded=1;orthogonalLoop=1;jettySize=auto;html=1;" parent="1" source="tZ4wHLgtjXOiwGDxSLUs-2" target="tZ4wHLgtjXOiwGDxSLUs-52" edge="1">
          <mxGeometry relative="1" as="geometry">
            <mxPoint x="40" y="-130" as="targetPoint" />
          </mxGeometry>
        </mxCell>
        <mxCell id="tZ4wHLgtjXOiwGDxSLUs-72" style="edgeStyle=orthogonalEdgeStyle;shape=connector;rounded=1;orthogonalLoop=1;jettySize=auto;html=1;entryX=0.5;entryY=0;entryDx=0;entryDy=0;labelBackgroundColor=default;strokeColor=default;align=center;verticalAlign=middle;fontFamily=Helvetica;fontSize=11;fontColor=default;endArrow=classic;exitX=0.5;exitY=1;exitDx=0;exitDy=0;" parent="1" source="tZ4wHLgtjXOiwGDxSLUs-2" target="tZ4wHLgtjXOiwGDxSLUs-21" edge="1">
          <mxGeometry relative="1" as="geometry" />
        </mxCell>
        <mxCell id="tZ4wHLgtjXOiwGDxSLUs-73" style="edgeStyle=orthogonalEdgeStyle;shape=connector;rounded=1;orthogonalLoop=1;jettySize=auto;html=1;entryX=0.5;entryY=0;entryDx=0;entryDy=0;labelBackgroundColor=default;strokeColor=default;align=center;verticalAlign=middle;fontFamily=Helvetica;fontSize=11;fontColor=default;endArrow=classic;startArrow=classic;startFill=1;" parent="1" source="tZ4wHLgtjXOiwGDxSLUs-2" target="tZ4wHLgtjXOiwGDxSLUs-60" edge="1">
          <mxGeometry relative="1" as="geometry" />
        </mxCell>
        <mxCell id="tZ4wHLgtjXOiwGDxSLUs-98" style="edgeStyle=orthogonalEdgeStyle;shape=connector;rounded=1;orthogonalLoop=1;jettySize=auto;html=1;entryX=0.5;entryY=0;entryDx=0;entryDy=0;labelBackgroundColor=default;strokeColor=default;align=center;verticalAlign=middle;fontFamily=Helvetica;fontSize=11;fontColor=default;endArrow=classic;startArrow=classic;startFill=1;" parent="1" source="tZ4wHLgtjXOiwGDxSLUs-2" target="tZ4wHLgtjXOiwGDxSLUs-97" edge="1">
          <mxGeometry relative="1" as="geometry" />
        </mxCell>
        <mxCell id="tZ4wHLgtjXOiwGDxSLUs-2" value="Home" style="whiteSpace=wrap;html=1;aspect=fixed;" parent="1" vertex="1">
          <mxGeometry x="-35" y="-300" width="50" height="50" as="geometry" />
        </mxCell>
        <mxCell id="tZ4wHLgtjXOiwGDxSLUs-90" style="edgeStyle=orthogonalEdgeStyle;shape=connector;rounded=1;orthogonalLoop=1;jettySize=auto;html=1;exitX=0.5;exitY=1;exitDx=0;exitDy=0;entryX=1;entryY=0.5;entryDx=0;entryDy=0;labelBackgroundColor=default;strokeColor=default;align=center;verticalAlign=middle;fontFamily=Helvetica;fontSize=11;fontColor=default;endArrow=classic;" parent="1" source="tZ4wHLgtjXOiwGDxSLUs-21" target="tZ4wHLgtjXOiwGDxSLUs-84" edge="1">
          <mxGeometry relative="1" as="geometry" />
        </mxCell>
        <mxCell id="qtGcyG4uE7JgqbSn3RzY-1" style="edgeStyle=orthogonalEdgeStyle;rounded=1;orthogonalLoop=1;jettySize=auto;html=1;entryX=0.5;entryY=0;entryDx=0;entryDy=0;" edge="1" parent="1" source="tZ4wHLgtjXOiwGDxSLUs-21" target="tZ4wHLgtjXOiwGDxSLUs-82">
          <mxGeometry relative="1" as="geometry" />
        </mxCell>
        <mxCell id="tZ4wHLgtjXOiwGDxSLUs-21" value="Hero" style="shape=hexagon;perimeter=hexagonPerimeter2;whiteSpace=wrap;html=1;fixedSize=1;size=7.5;" parent="1" vertex="1">
          <mxGeometry x="-130" y="-210" width="60" height="30" as="geometry" />
        </mxCell>
        <mxCell id="tZ4wHLgtjXOiwGDxSLUs-33" value="Logos" style="shape=hexagon;perimeter=hexagonPerimeter2;whiteSpace=wrap;html=1;fixedSize=1;size=10;" parent="1" vertex="1">
          <mxGeometry x="-40" y="-210" width="60" height="30" as="geometry" />
        </mxCell>
        <mxCell id="tZ4wHLgtjXOiwGDxSLUs-93" value="My work" style="edgeStyle=orthogonalEdgeStyle;shape=connector;rounded=1;orthogonalLoop=1;jettySize=auto;html=1;entryX=1;entryY=0.5;entryDx=0;entryDy=0;labelBackgroundColor=default;strokeColor=default;align=center;verticalAlign=middle;fontFamily=Helvetica;fontSize=11;fontColor=default;endArrow=classic;exitX=0.5;exitY=1;exitDx=0;exitDy=0;" parent="1" source="tZ4wHLgtjXOiwGDxSLUs-40" target="tZ4wHLgtjXOiwGDxSLUs-82" edge="1">
          <mxGeometry x="0.5556" y="-5" relative="1" as="geometry">
            <mxPoint as="offset" />
          </mxGeometry>
        </mxCell>
        <mxCell id="tZ4wHLgtjXOiwGDxSLUs-96" value="Cards" style="edgeStyle=orthogonalEdgeStyle;shape=connector;rounded=1;orthogonalLoop=1;jettySize=auto;html=1;entryX=1;entryY=0.5;entryDx=0;entryDy=0;labelBackgroundColor=default;strokeColor=default;align=center;verticalAlign=middle;fontFamily=Helvetica;fontSize=11;fontColor=default;endArrow=classic;exitX=0.5;exitY=1;exitDx=0;exitDy=0;" parent="1" source="tZ4wHLgtjXOiwGDxSLUs-40" target="tZ4wHLgtjXOiwGDxSLUs-95" edge="1">
          <mxGeometry relative="1" as="geometry" />
        </mxCell>
        <mxCell id="tZ4wHLgtjXOiwGDxSLUs-40" value="My Work" style="shape=hexagon;perimeter=hexagonPerimeter2;whiteSpace=wrap;html=1;fixedSize=1;size=10;" parent="1" vertex="1">
          <mxGeometry x="40" y="-210" width="60" height="30" as="geometry" />
        </mxCell>
        <mxCell id="tZ4wHLgtjXOiwGDxSLUs-52" value="Testimonials" style="shape=hexagon;perimeter=hexagonPerimeter2;whiteSpace=wrap;html=1;fixedSize=1;size=10;" parent="1" vertex="1">
          <mxGeometry x="120" y="-210" width="90" height="30" as="geometry" />
        </mxCell>
        <mxCell id="tZ4wHLgtjXOiwGDxSLUs-58" style="edgeStyle=orthogonalEdgeStyle;rounded=1;orthogonalLoop=1;jettySize=auto;html=1;entryX=0.506;entryY=-0.136;entryDx=0;entryDy=0;entryPerimeter=0;exitX=0.5;exitY=1;exitDx=0;exitDy=0;" parent="1" source="tZ4wHLgtjXOiwGDxSLUs-2" target="tZ4wHLgtjXOiwGDxSLUs-40" edge="1">
          <mxGeometry relative="1" as="geometry" />
        </mxCell>
        <mxCell id="tZ4wHLgtjXOiwGDxSLUs-79" style="edgeStyle=orthogonalEdgeStyle;shape=connector;rounded=1;orthogonalLoop=1;jettySize=auto;html=1;labelBackgroundColor=default;strokeColor=default;align=center;verticalAlign=middle;fontFamily=Helvetica;fontSize=11;fontColor=default;endArrow=classic;exitX=0.5;exitY=1;exitDx=0;exitDy=0;startArrow=classic;startFill=1;" parent="1" source="tZ4wHLgtjXOiwGDxSLUs-60" target="tZ4wHLgtjXOiwGDxSLUs-80" edge="1">
          <mxGeometry relative="1" as="geometry">
            <mxPoint x="-300" y="-120" as="targetPoint" />
          </mxGeometry>
        </mxCell>
        <mxCell id="tZ4wHLgtjXOiwGDxSLUs-81" style="edgeStyle=orthogonalEdgeStyle;shape=connector;rounded=1;orthogonalLoop=1;jettySize=auto;html=1;labelBackgroundColor=default;strokeColor=default;align=center;verticalAlign=middle;fontFamily=Helvetica;fontSize=11;fontColor=default;endArrow=classic;exitX=0.5;exitY=1;exitDx=0;exitDy=0;startArrow=classic;startFill=1;" parent="1" source="tZ4wHLgtjXOiwGDxSLUs-60" target="tZ4wHLgtjXOiwGDxSLUs-82" edge="1">
          <mxGeometry relative="1" as="geometry">
            <mxPoint x="-240" y="-120" as="targetPoint" />
          </mxGeometry>
        </mxCell>
        <mxCell id="tZ4wHLgtjXOiwGDxSLUs-83" style="edgeStyle=orthogonalEdgeStyle;shape=connector;rounded=1;orthogonalLoop=1;jettySize=auto;html=1;labelBackgroundColor=default;strokeColor=default;align=center;verticalAlign=middle;fontFamily=Helvetica;fontSize=11;fontColor=default;endArrow=classic;startArrow=classic;startFill=1;" parent="1" source="tZ4wHLgtjXOiwGDxSLUs-60" target="tZ4wHLgtjXOiwGDxSLUs-84" edge="1">
          <mxGeometry relative="1" as="geometry">
            <mxPoint x="-170" y="-120" as="targetPoint" />
          </mxGeometry>
        </mxCell>
        <mxCell id="tZ4wHLgtjXOiwGDxSLUs-60" value="Navbar" style="shape=hexagon;perimeter=hexagonPerimeter2;whiteSpace=wrap;html=1;fixedSize=1;size=7.5;" parent="1" vertex="1">
          <mxGeometry x="-210" y="-210" width="60" height="30" as="geometry" />
        </mxCell>
        <mxCell id="tZ4wHLgtjXOiwGDxSLUs-80" value="About me" style="whiteSpace=wrap;html=1;aspect=fixed;fontFamily=Helvetica;fontSize=11;fontColor=default;" parent="1" vertex="1">
          <mxGeometry x="-390" y="-140" width="50" height="50" as="geometry" />
        </mxCell>
        <mxCell id="tZ4wHLgtjXOiwGDxSLUs-94" style="edgeStyle=orthogonalEdgeStyle;shape=connector;rounded=1;orthogonalLoop=1;jettySize=auto;html=1;labelBackgroundColor=default;strokeColor=default;align=center;verticalAlign=middle;fontFamily=Helvetica;fontSize=11;fontColor=default;endArrow=classic;" parent="1" source="tZ4wHLgtjXOiwGDxSLUs-82" target="tZ4wHLgtjXOiwGDxSLUs-95" edge="1">
          <mxGeometry relative="1" as="geometry">
            <mxPoint x="-40" y="40" as="targetPoint" />
          </mxGeometry>
        </mxCell>
        <mxCell id="tZ4wHLgtjXOiwGDxSLUs-109" value="&lt;u&gt;Cards&lt;/u&gt;" style="edgeLabel;html=1;align=center;verticalAlign=middle;resizable=0;points=[];fontSize=11;fontFamily=Helvetica;fontColor=default;" parent="tZ4wHLgtjXOiwGDxSLUs-94" vertex="1" connectable="0">
          <mxGeometry x="-0.0979" y="3" relative="1" as="geometry">
            <mxPoint as="offset" />
          </mxGeometry>
        </mxCell>
        <mxCell id="tZ4wHLgtjXOiwGDxSLUs-82" value="Projects" style="whiteSpace=wrap;html=1;aspect=fixed;fontFamily=Helvetica;fontSize=11;fontColor=default;" parent="1" vertex="1">
          <mxGeometry x="-170" y="-140" width="50" height="50" as="geometry" />
        </mxCell>
        <mxCell id="tZ4wHLgtjXOiwGDxSLUs-111" style="edgeStyle=orthogonalEdgeStyle;shape=connector;rounded=1;orthogonalLoop=1;jettySize=auto;html=1;entryX=0.5;entryY=0;entryDx=0;entryDy=0;labelBackgroundColor=default;strokeColor=default;align=center;verticalAlign=middle;fontFamily=Helvetica;fontSize=11;fontColor=default;endArrow=classic;" parent="1" source="tZ4wHLgtjXOiwGDxSLUs-84" target="tZ4wHLgtjXOiwGDxSLUs-110" edge="1">
          <mxGeometry relative="1" as="geometry" />
        </mxCell>
        <mxCell id="qtGcyG4uE7JgqbSn3RzY-9" style="edgeStyle=orthogonalEdgeStyle;orthogonalLoop=1;jettySize=auto;html=1;entryX=0.5;entryY=1;entryDx=0;entryDy=0;exitX=0.5;exitY=1;exitDx=0;exitDy=0;fillColor=#e1d5e7;strokeColor=#9673a6;curved=1;" edge="1" parent="1" source="tZ4wHLgtjXOiwGDxSLUs-84" target="qtGcyG4uE7JgqbSn3RzY-8">
          <mxGeometry relative="1" as="geometry">
            <Array as="points">
              <mxPoint x="-215" />
              <mxPoint x="-480" />
            </Array>
          </mxGeometry>
        </mxCell>
        <mxCell id="tZ4wHLgtjXOiwGDxSLUs-84" value="Contact" style="whiteSpace=wrap;html=1;aspect=fixed;fontFamily=Helvetica;fontSize=11;fontColor=default;" parent="1" vertex="1">
          <mxGeometry x="-240" y="-90" width="50" height="50" as="geometry" />
        </mxCell>
        <mxCell id="tZ4wHLgtjXOiwGDxSLUs-116" style="edgeStyle=orthogonalEdgeStyle;shape=connector;rounded=1;orthogonalLoop=1;jettySize=auto;html=1;entryX=0;entryY=0.5;entryDx=0;entryDy=0;labelBackgroundColor=default;strokeColor=default;align=center;verticalAlign=middle;fontFamily=Helvetica;fontSize=11;fontColor=default;endArrow=classic;exitX=0.5;exitY=1;exitDx=0;exitDy=0;" parent="1" source="tZ4wHLgtjXOiwGDxSLUs-86" target="tZ4wHLgtjXOiwGDxSLUs-95" edge="1">
          <mxGeometry relative="1" as="geometry" />
        </mxCell>
        <mxCell id="tZ4wHLgtjXOiwGDxSLUs-86" value="Dashboard" style="whiteSpace=wrap;html=1;aspect=fixed;fontFamily=Helvetica;fontSize=11;fontColor=default;" parent="1" vertex="1">
          <mxGeometry x="-320" y="-90" width="50" height="50" as="geometry" />
        </mxCell>
        <mxCell id="tZ4wHLgtjXOiwGDxSLUs-95" value="Project Details" style="whiteSpace=wrap;html=1;aspect=fixed;fontFamily=Helvetica;fontSize=11;fontColor=default;" parent="1" vertex="1">
          <mxGeometry x="-170" y="20" width="50" height="50" as="geometry" />
        </mxCell>
        <mxCell id="qtGcyG4uE7JgqbSn3RzY-2" style="edgeStyle=orthogonalEdgeStyle;rounded=1;orthogonalLoop=1;jettySize=auto;html=1;entryX=0.5;entryY=0;entryDx=0;entryDy=0;exitX=0.5;exitY=1;exitDx=0;exitDy=0;fillColor=#f8cecc;strokeColor=#b85450;" edge="1" parent="1" source="tZ4wHLgtjXOiwGDxSLUs-97" target="tZ4wHLgtjXOiwGDxSLUs-80">
          <mxGeometry relative="1" as="geometry" />
        </mxCell>
        <mxCell id="qtGcyG4uE7JgqbSn3RzY-3" style="edgeStyle=orthogonalEdgeStyle;rounded=1;orthogonalLoop=1;jettySize=auto;html=1;entryX=0.5;entryY=0;entryDx=0;entryDy=0;fillColor=#f8cecc;strokeColor=#b85450;" edge="1" parent="1" source="tZ4wHLgtjXOiwGDxSLUs-97" target="tZ4wHLgtjXOiwGDxSLUs-86">
          <mxGeometry relative="1" as="geometry" />
        </mxCell>
        <mxCell id="qtGcyG4uE7JgqbSn3RzY-4" style="edgeStyle=orthogonalEdgeStyle;rounded=1;orthogonalLoop=1;jettySize=auto;html=1;entryX=0.5;entryY=0;entryDx=0;entryDy=0;fillColor=#f8cecc;strokeColor=#b85450;" edge="1" parent="1" source="tZ4wHLgtjXOiwGDxSLUs-97" target="tZ4wHLgtjXOiwGDxSLUs-84">
          <mxGeometry relative="1" as="geometry" />
        </mxCell>
        <mxCell id="qtGcyG4uE7JgqbSn3RzY-5" style="edgeStyle=orthogonalEdgeStyle;rounded=1;orthogonalLoop=1;jettySize=auto;html=1;entryX=0.5;entryY=0;entryDx=0;entryDy=0;exitX=0.5;exitY=1;exitDx=0;exitDy=0;fillColor=#f8cecc;strokeColor=#b85450;" edge="1" parent="1" source="tZ4wHLgtjXOiwGDxSLUs-97" target="tZ4wHLgtjXOiwGDxSLUs-82">
          <mxGeometry relative="1" as="geometry" />
        </mxCell>
        <mxCell id="qtGcyG4uE7JgqbSn3RzY-7" style="edgeStyle=orthogonalEdgeStyle;orthogonalLoop=1;jettySize=auto;html=1;curved=1;fillColor=#e1d5e7;strokeColor=#9673a6;" edge="1" parent="1" source="tZ4wHLgtjXOiwGDxSLUs-97" target="qtGcyG4uE7JgqbSn3RzY-8">
          <mxGeometry relative="1" as="geometry">
            <mxPoint x="-430" y="-205" as="targetPoint" />
          </mxGeometry>
        </mxCell>
        <mxCell id="tZ4wHLgtjXOiwGDxSLUs-97" value="Footer" style="shape=hexagon;perimeter=hexagonPerimeter2;whiteSpace=wrap;html=1;fixedSize=1;size=7.5;fillColor=#f8cecc;strokeColor=#b85450;" parent="1" vertex="1">
          <mxGeometry x="-290" y="-220" width="60" height="30" as="geometry" />
        </mxCell>
        <mxCell id="tZ4wHLgtjXOiwGDxSLUs-110" value="&lt;div&gt;Form&lt;/div&gt;&lt;div&gt;Data&lt;br&gt; &lt;/div&gt;" style="shape=hexagon;perimeter=hexagonPerimeter2;whiteSpace=wrap;html=1;fixedSize=1;fontFamily=Helvetica;fontSize=11;fontColor=default;size=10;" parent="1" vertex="1">
          <mxGeometry x="-240" y="-10" width="50" height="30" as="geometry" />
        </mxCell>
        <mxCell id="qtGcyG4uE7JgqbSn3RzY-8" value="&lt;div&gt;Socials&lt;/div&gt;&lt;div&gt;LinkedIn&lt;/div&gt;&lt;div&gt;GitHub&lt;/div&gt;&lt;div&gt;YouTube&lt;br&gt;&lt;/div&gt;" style="ellipse;whiteSpace=wrap;html=1;aspect=fixed;" vertex="1" parent="1">
          <mxGeometry x="-520" y="-120" width="80" height="80" as="geometry" />
        </mxCell>
      </root>
    </mxGraphModel>
  </diagram>
</mxfile>
